<svg xmlns="http://www.w3.org/2000/svg" viewBox="0 0 640 480" role="img" aria-labelledby="title desc">
  <title id="title">Noise Canceling Earbuds</title>
  <desc id="desc">Illustration of wireless earbuds with a charging case.</desc>
  <defs>
    <linearGradient id="bg" x1="0" x2="1" y1="0" y2="1">
      <stop offset="0" stop-color="#eef2ff"/>
      <stop offset="1" stop-color="#fff7ed"/>
    </linearGradient>
    <linearGradient id="case" x1="0" x2="1" y1="0" y2="1">
      <stop offset="0" stop-color="#ffffff"/>
      <stop offset="1" stop-color="#dbeafe"/>
    </linearGradient>
  </defs>
  <rect width="640" height="480" fill="url(#bg)"/>
  <circle cx="151" cy="123" r="62" fill="#86efac" opacity=".5"/>
  <circle cx="504" cy="344" r="78" fill="#fbbf24" opacity=".36"/>
  <rect x="170" y="230" width="300" height="170" rx="54" fill="url(#case)" stroke="#cbd5e1" stroke-width="10"/>
  <path fill="#ffffff" d="M178 277h284v48H178z" opacity=".85"/>
  <rect x="282" y="312" width="76" height="18" rx="9" fill="#0f766e"/>
  <g transform="translate(178 80)">
    <path fill="#ffffff" stroke="#94a3b8" stroke-width="9" d="M77 24c50 0 90 40 90 90v33c0 28-23 51-51 51H76c-28 0-51-23-51-51v-12c0-17 14-31 31-31h35c14 0 25-11 25-25V63c0-22-17-39-39-39Z"/>
    <circle cx="84" cy="83" r="31" fill="#2563eb"/>
    <circle cx="84" cy="83" r="14" fill="#bfdbfe"/>
    <rect x="110" y="184" width="34" height="88" rx="17" fill="#0f172a"/>
  </g>
  <g transform="translate(350 80) scale(-1 1)">
    <path fill="#ffffff" stroke="#94a3b8" stroke-width="9" d="M77 24c50 0 90 40 90 90v33c0 28-23 51-51 51H76c-28 0-51-23-51-51v-12c0-17 14-31 31-31h35c14 0 25-11 25-25V63c0-22-17-39-39-39Z"/>
    <circle cx="84" cy="83" r="31" fill="#f97316"/>
    <circle cx="84" cy="83" r="14" fill="#fed7aa"/>
    <rect x="110" y="184" width="34" height="88" rx="17" fill="#0f172a"/>
  </g>
  <path fill="none" stroke="#0f172a" stroke-linecap="round" stroke-width="12" d="M219 126c-18 22-18 55 0 77"/>
  <path fill="none" stroke="#0f172a" stroke-linecap="round" stroke-width="12" d="M421 126c18 22 18 55 0 77"/>
</svg>
