<svg xmlns="http://www.w3.org/2000/svg" viewBox="0 0 640 480" role="img" aria-labelledby="title desc">
  <title id="title">Daily Runner Sneakers</title>
  <desc id="desc">Illustration of blue and coral running sneakers.</desc>
  <defs>
    <linearGradient id="bg" x1="0" x2="1" y1="0" y2="1">
      <stop offset="0" stop-color="#e6f3ff"/>
      <stop offset="1" stop-color="#f8fbff"/>
    </linearGradient>
    <linearGradient id="sole" x1="0" x2="1" y1="0" y2="0">
      <stop offset="0" stop-color="#0f766e"/>
      <stop offset="1" stop-color="#2563eb"/>
    </linearGradient>
  </defs>
  <rect width="640" height="480" fill="url(#bg)"/>
  <circle cx="524" cy="102" r="68" fill="#ffd166" opacity=".55"/>
  <path fill="#ffffff" d="M96 322c48-25 89-76 121-151 16-38 57-61 97-52l52 12c30 7 52 31 58 61l10 51 82 24c29 9 49 36 49 66 0 28-23 51-51 51H135c-31 0-56-25-56-56 0-2 8-2 17-6Z"/>
  <path fill="#d9e5f0" d="M102 339h446c-2 26-24 45-50 45H137c-29 0-53-19-59-45h24Z"/>
  <path fill="url(#sole)" d="M83 334h474c18 0 33 15 33 33s-15 33-33 33H104c-31 0-56-25-56-56 0-6 5-10 11-10h24Z"/>
  <path fill="#f97316" d="M229 154c35-34 86-45 133-28l44 16c-24 18-67 47-127 79l-50-67Z"/>
  <path fill="#0f172a" d="M365 206c21-14 47-17 71-8l17 45-88-37Z"/>
  <path fill="#ffffff" d="M186 263c58-3 121-19 189-48 10-4 21 1 25 10 4 10-1 21-10 25-72 31-139 48-202 51-10 1-19-7-20-17 0-10 8-20 18-21Z"/>
  <g fill="none" stroke="#0f172a" stroke-linecap="round" stroke-width="10">
    <path d="m255 174 42 55"/>
    <path d="m291 158 42 55"/>
    <path d="m328 154 36 48"/>
  </g>
  <g fill="#ffffff">
    <circle cx="149" cy="369" r="10"/>
    <circle cx="202" cy="369" r="10"/>
    <circle cx="255" cy="369" r="10"/>
    <circle cx="308" cy="369" r="10"/>
    <circle cx="361" cy="369" r="10"/>
  </g>
</svg>
