<svg xmlns="http://www.w3.org/2000/svg" viewBox="0 0 640 480" role="img" aria-label="Packable Rain Jacket">
  <rect width="640" height="480" fill="#ecfeff"/>
  <path d="M242 126c26 40 130 40 156 0l66 48 78 186-84 30-34-84v108H216V306l-34 84-84-30 78-186 66-48z" fill="#0891b2"/>
  <path d="M250 128c30 30 110 30 140 0l-34 70h-72l-34-70z" fill="#cffafe"/>
  <path d="M320 198v216" stroke="#164e63" stroke-width="10" stroke-linecap="round"/>
  <path d="M248 252h48m48 0h48" stroke="#cffafe" stroke-width="12" stroke-linecap="round"/>
  <path d="M176 174l-78 186m366-186l78 186" stroke="#0e7490" stroke-width="16" stroke-linecap="round"/>
  <ellipse cx="320" cy="426" rx="150" ry="18" fill="#0e7490" opacity=".15"/>
</svg>
